<svg version="1.1" id="Layer_1" xmlns="http://www.w3.org/2000/svg" xmlns:xlink="http://www.w3.org/1999/xlink" x="0px" y="0px"
	 width="100%" viewBox="0 0 1024 1024" enable-background="new 0 0 1024 1024" xml:space="preserve">
<path fill="#000000" opacity="1.000000" stroke="none" 
	d="
M431.679352,456.999939 
	C431.678955,421.675995 431.683380,386.852051 431.675232,352.028137 
	C431.673523,344.723969 430.964447,344.092926 423.723053,343.915070 
	C391.609375,343.126373 359.496490,343.974762 327.383301,343.916168 
	C313.666534,343.891144 313.666565,343.911591 313.666779,330.425262 
	C313.666870,323.427155 313.654205,316.429016 313.670288,309.430939 
	C313.685242,302.926514 313.698639,302.907898 320.458771,302.894440 
	C330.289276,302.874847 340.123657,302.724915 349.948639,302.957458 
	C354.205780,303.058197 355.889648,301.815430 355.749023,297.310089 
	C355.452820,287.821899 355.804260,278.314789 355.590851,268.822144 
	C355.502441,264.889038 356.871765,263.523041 360.788300,263.623657 
	C369.113831,263.837524 377.451263,263.564392 385.778656,263.739014 
	C389.438141,263.815704 390.843506,262.486633 390.794434,258.805542 
	C390.672302,249.643723 390.820251,240.478424 390.842255,231.314514 
	C390.860504,223.718384 390.865204,223.693878 398.225159,223.684296 
	C407.222717,223.672577 416.222565,223.555145 425.216919,223.723587 
	C429.844360,223.810272 431.865570,222.151337 431.739105,217.291519 
	C431.492126,207.800583 431.822174,198.295074 431.602203,188.802795 
	C431.509888,184.819473 432.975586,183.558853 436.840485,183.630066 
	C446.834320,183.814178 456.836212,183.559357 466.830139,183.740295 
	C471.153351,183.818588 472.808350,182.136185 472.725006,177.847061 
	C472.553467,169.019531 472.781158,160.184509 472.633087,151.356125 
	C472.575928,147.948975 473.746643,146.625565 477.243683,146.639374 
	C501.236786,146.734192 525.230835,146.755753 549.223633,146.621674 
	C553.307129,146.598862 554.339478,148.298965 554.266907,152.018066 
	C554.094604,160.845581 554.339294,169.681427 554.153503,178.508392 
	C554.073669,182.301041 555.174927,183.865967 559.255493,183.759293 
	C568.912781,183.506866 578.586243,183.873047 588.243225,183.615967 
	C592.697449,183.497375 594.482361,184.757904 594.325012,189.493759 
	C594.009705,198.980530 594.414001,208.490036 594.163879,217.980743 
	C594.051697,222.236374 595.226318,223.909714 599.762329,223.769104 
	C609.583374,223.464691 619.422668,223.800781 629.250305,223.631149 
	C632.961121,223.567078 634.253906,224.986923 634.209961,228.602341 
	C634.088623,238.597763 634.323547,248.598282 634.142456,258.591797 
	C634.071655,262.496277 635.380920,263.843079 639.341919,263.752289 
	C649.333801,263.523315 659.336426,263.798187 669.331055,263.639709 
	C672.990234,263.581696 674.354309,264.870972 674.284180,268.562836 
	C674.106812,277.890259 674.428650,287.230072 674.124084,296.550995 
	C673.972229,301.201630 675.217346,303.097504 680.210083,302.927094 
	C689.528137,302.609100 698.869446,303.044464 708.196655,302.892212 
	C712.524658,302.821594 714.529236,303.993317 714.375305,308.823975 
	C714.051636,318.977448 714.202148,329.149628 714.332397,339.311890 
	C714.373352,342.513428 713.392212,343.585846 710.013855,343.571381 
	C675.035034,343.421387 640.055420,343.447723 605.076050,343.425995 
	C603.576477,343.425049 602.074097,343.494629 600.577820,343.426300 
	C595.738770,343.205292 594.020203,345.258362 594.031128,350.282379 
	C594.207092,431.260040 594.205383,512.238098 594.242676,593.216064 
	C594.246643,601.880371 594.039185,610.551392 594.324341,619.206299 
	C594.472290,623.695740 592.689697,625.116699 588.475586,624.924744 
	C575.666504,624.341431 562.847778,625.004639 550.020752,624.588867 
	C536.226074,624.141846 522.399475,624.741577 508.586456,624.782410 
	C491.943085,624.831604 475.299408,624.756531 458.655853,624.769470 
	C451.829712,624.774780 445.003662,624.908447 438.177521,624.912170 
	C431.916412,624.915527 431.676849,624.667480 431.676147,618.451721 
	C431.670044,564.801147 431.676758,511.150543 431.679352,456.999939 
z"/>
<path fill="#000000" opacity="1.000000" stroke="none" 
	d="
M168.013123,541.701477 
	C201.506668,541.703674 234.502701,541.797791 267.497070,541.606201 
	C272.294586,541.578308 273.517670,542.796570 273.502991,547.725098 
	C273.317230,610.049133 273.394836,672.373962 273.440857,734.698608 
	C273.445953,741.627563 273.588989,741.698303 280.437469,741.698425 
	C435.416321,741.700806 590.395203,741.697571 745.374023,741.688660 
	C752.103943,741.688232 752.713440,741.185669 752.584290,734.132019 
	C751.455872,672.482483 752.324097,610.827454 752.023254,549.175964 
	C751.986938,541.727112 752.001953,541.717651 759.406738,541.715942 
	C794.568604,541.707947 829.730957,541.792725 864.891785,541.601562 
	C869.837830,541.574707 871.459961,542.867493 871.452820,548.016907 
	C871.311218,650.669373 871.311646,753.322205 871.449524,855.974670 
	C871.456360,861.070007 869.938721,862.408264 864.937256,862.405823 
	C630.469299,862.289307 396.001312,862.301941 161.533295,862.292114 
	C154.994934,862.291809 154.942276,862.235474 154.943710,855.505066 
	C154.965424,754.020386 154.990677,652.535706 155.036163,551.051025 
	C155.041016,540.242126 154.561951,541.833496 164.513992,541.701782 
	C165.514175,541.688538 166.514694,541.700989 168.013123,541.701477 
M197.322098,622.499939 
	C197.324448,685.826721 197.327316,749.153442 197.328491,812.480225 
	C197.328644,820.679810 197.324600,820.705261 205.397781,820.705688 
	C411.543976,820.716675 617.690186,820.722656 823.836365,820.725464 
	C830.775818,820.725586 830.844299,820.673096 830.846313,813.791565 
	C830.854492,785.461060 830.832825,757.130615 830.834656,728.800110 
	C830.837646,682.804871 830.860046,636.809570 830.847656,590.814331 
	C830.845886,584.169006 830.008972,583.166199 823.296387,583.471008 
	C815.798706,583.811401 808.324463,583.517273 800.838928,583.510193 
	C794.595764,583.504272 794.063293,584.357788 794.067627,590.554565 
	C794.110901,652.048157 794.113037,713.541931 794.294495,775.035156 
	C794.308289,779.709534 793.154419,781.411011 788.203369,781.408020 
	C605.388306,781.298584 422.573120,781.297119 239.758026,781.406555 
	C234.903564,781.409485 232.983551,779.920044 233.636963,775.155823 
	C233.771576,774.174377 233.657883,773.158691 233.657913,772.158813 
	C233.659683,711.664795 233.663971,651.170837 233.659531,590.676819 
	C233.659027,583.659119 233.362091,583.277527 226.292633,583.425354 
	C218.636475,583.585449 210.975327,584.458069 203.330139,583.598633 
	C198.641983,583.071472 197.145294,584.928589 197.246353,589.504700 
	C197.481766,600.165100 197.321960,610.834290 197.322098,622.499939 
z"/>
</svg>